# xmcd
#
# Track frame offsets:
#	184
#	20428
#	40662
#	60986
#	81245
#	101516
#	121859
#	142079
#	162308
#	182541
#	202742
#	223063
#	243372
#	263688
#	284022
#	304292
#
# Disc length: 4328 seconds
#
# Revision: 4
# Processed by: cddbd v1.5.1PL2 Copyright (c) Steve Scherf et al.
# Submitted via: audiograbber 1.83.01
#
DISCID=dd10e610
DTITLE=Various Artist - Musique et Merveilles
DYEAR=2001
DGENRE=Ambient
TTITLE0=Vincent Bruley - Le petit d'homme
TTITLE1=Laurent Dury - L'incroyable voyage
TTITLE2=Philippe Bestion - La forêt de Broceliande
TTITLE3=Ayuthya - La vie au château
TTITLE4=Marc Dall'Anese et Gilbert Dall'Anese - Ballade en Ecosse
TTITLE5=Karin Nobbs et Philippe Bestion - La branche de chêne
TTITLE6=Ayuthya - Prince majestueux
TTITLE7=Dominique Massa et Didier Garino - La merveille des sables
TTITLE8=Tony Quimbel - Le réveil
TTITLE9=Ian Andréa - Deux jolies têtes blondes
TTITLE10=Nicolas Jeandot - La rivière danse
TTITLE11=Michel Goubin - La clairière s'anime
TTITLE12=Philippe Bestion - La récompense
TTITLE13=Laurent Dury - Les songes d'Ali
TTITLE14=Michel Goubin - La réunion du conseil
TTITLE15=Michel Goubin - A l'assaut des nuées
EXTD=La vie en seize verbes fondamentaux YEAR: 2001
EXTT0=
EXTT1=
EXTT2=
EXTT3=
EXTT4=
EXTT5=
EXTT6=
EXTT7=
EXTT8=
EXTT9=
EXTT10=
EXTT11=
EXTT12=
EXTT13=
EXTT14=
EXTT15=
PLAYORDER=
